<svg xmlns="http://www.w3.org/2000/svg" viewBox="0 0 512.001 512.001" xmlns:v="https://vecta.io/nano"><path d="M512 256.006C512 397.4 397.395 512.004 256.005 512 114.606 512.004.001 397.402.001 256.006-.007 114.6 114.606 0 256.005 0 397.395 0 512 114.614 512 256.006z" fill="#00b8ff"/><path d="M512 256.005l-.11-4.362-2.077-2.077c-.387-.373-92.86-92.916-93.27-93.27-6.682-6.443-16.503-10.167-28.66-10.167H122.195c-22.4 0-36.318 13.02-36.318 33.988v151.765c0 10.43 3.774 19.057 10.255 25.03.375.385.74.77 1.137 1.137.375.385.74.772 1.137 1.137l152.69 152.69 4.9.124C397.395 512.004 512 397.4 512 256.005z" fill="#00a0ff"/><path d="M387.88 146.13H122.196c-22.4 0-36.318 13.02-36.318 33.988v151.765c0 20.33 14.174 33.988 35.27 33.988h266.735c21.802 0 38.242-14.613 38.242-33.988V180.117c-.001-20.65-15.01-33.988-38.243-33.988zm0 14.177c4.002 0 10.88.703 16.28 4.255L261.898 278.94 107.41 164.03c3.618-2.428 8.496-3.724 14.784-3.724H387.88zm24.066 171.577c0 13.007-12.107 19.81-24.065 19.81H121.147c-13.207 0-21.092-7.407-21.092-19.81V180.117c0-1.308.13-2.5.277-3.68L257.84 293.588a7.08 7.08 0 0 0 4.229 1.398 7.09 7.09 0 0 0 4.441-1.565l145.03-116.607c.15 1.086.406 2.07.406 3.302v151.767z" fill="#f4f6f9"/></svg>