<svg xmlns="http://www.w3.org/2000/svg" viewBox="0 0 512 512" xmlns:v="https://vecta.io/nano"><path d="M512 256a257.78 257.78 0 0 1-.46 15.35c-1.223 20.814-4.942 40.96-10.857 60.134-11.128 36.112-30.03 68.817-54.753 96.15-2.696 2.988-5.465 5.904-8.296 8.767C391.262 483.088 327 512 256 512s-135.262-28.902-181.624-75.598a256.52 256.52 0 0 1-39.549-51.419C12.685 347.105 0 303.03 0 256s12.685-91.105 34.826-128.982c10.982-18.798 24.294-36.07 39.55-51.42C120.738 28.902 185 0 256 0c115.106 0 212.47 75.975 244.684 180.517 5.914 19.174 9.634 39.32 10.857 60.134A258.57 258.57 0 0 1 512 256z" fill="#f2f2f2"/><path d="M445.93 427.635c-2.696 2.988-5.465 5.904-8.296 8.767h-72.82l-78.66-116.15-78.66 116.15h-87.05L242.625 256 120.445 75.598h87.05L445.93 427.635z" fill="#5e4e88"/><path d="M209.23 256L87.05 436.402H74.376a256.52 256.52 0 0 1-39.549-51.419L122.18 256 0 75.598h87.05l78.66 116.15L209.23 256z" fill="#453963"/><path d="M511.997 180.516v60.132H351.43l-40.737-60.132zm-.457 90.834c-1.223 20.814-4.942 40.96-10.857 60.134h-87.74l-40.74-60.134H511.54z" fill="#904c8c"/></svg>