<svg xmlns="http://www.w3.org/2000/svg" height="512" viewBox="0 0 128 128" width="512" xmlns:v="https://vecta.io/nano"><circle cx="64" cy="64" fill="#ef5261" r="64"/><rect fill="#575b6d" height="50.424" rx="3.289" width="82" x="23" y="38.788"/><path d="M93.927 41.638v44.724H34.073V41.638z" fill="#69b0ee"/><circle cx="99.464" cy="77.77" fill="#414451" r="1.261"/><g fill="#828a9e"><rect height="1.891" rx=".945" transform="matrix(0 1 -1 0 163.464 -35.464)" width="9.455" x="94.736" y="63.055"/><circle cx="28.536" cy="64" r="2.55"/></g><path d="M55.243 58.25l-3.184 11.5H50.6l-2.76-9.994-2.77 9.992H43.6l-3.176-11.5h1.6l2.3 9.365 2.588-9.365h1.827l2.588 9.365 2.3-9.365zm16.157 0l-3.184 11.5H66.76L64 59.757l-2.77 9.992h-1.458L56.6 58.25h1.6l2.3 9.365 2.588-9.365H64.9l2.6 9.365 2.3-9.365zm16.164 0l-3.184 11.5h-1.46l-2.76-9.994-2.77 9.992h-1.458l-3.176-11.5h1.6l2.3 9.365 2.588-9.365h1.825l2.588 9.365 2.3-9.365z" fill="#eeefee"/></svg>