<svg xmlns="http://www.w3.org/2000/svg" height="512" viewBox="0 0 507.286 507.286" width="512" xmlns:v="https://vecta.io/nano"><path d="M466.11 140.026l3.02-8.398L410.692 97.9l-8.177 1.577-9.243-2.342 2.344-7.937-64.304-37.112-5.698 1.55-10.417-3.27 1.137-6.925-61.497-35.5a3.42 3.42 0 0 0-3.43.01l-59.07 34.74 2.378 7.997-7.047 3.834-10.065-3.166-62.976 37.037 1.706 5.482-7.998 4.624-8.472-1.423-61.395 36.107 1.846 7.158-2.724 1.8 215.527 123.2 216.46-124.924-3.467-.412z" fill="#fef056"/><path d="M280.31 456.022l-7.63-168.5-19.563-22.15-4.85-18.377L59.876 145.72l-16.932-4.313-12.646 4.162v61.4l5.338 4.76-.492 9.77-4.846 2.766v61.602l3.2 7.096-.605 9.81-2.594.323v67.874c0 1.22.66 2.35 1.72 2.95l60.527 34.6 1.93-2.71 12.038 8.5 1.033 2.785 63.15 36.1 3.846-2.38 9.448 6.54 1.706 4.414 65.723 37.57a3.36 3.36 0 0 0 1.87.44l-.002-3.24z" fill="#a6e7f0"/><path d="M476.987 144.282l-5.642-2.023-218.228 126.618.17 230.905c.53-.02 1.04-.17 1.52-.45l65.732-37.934 1.976-5.686 10.846-5.66 2.18 2.7 63.148-36.443 2.217-4.268 10.76-5.434 2.022 1.045 61.6-35.55c1.05-.6 1.7-1.73 1.7-2.94V299.63l-2.375-.223-.708-12.6 3.083-4.576V223.64l-1.775-.4-1.515-11.683 3.3-5.163z" fill="#fd8087"/><path d="M141.944 112.522L287.38 26.735 254.837 7.952a3.42 3.42 0 0 0-3.43.01l-59.07 34.74v6.122l-8.568 3.168-6.166-.625-62.976 37.037.273 4.358-7.04 5.4-7.998-1.077-61.395 36.107 3.75 7.184 215.34 120.566 28.13-15.775-143.368-81.943c-19.532-11.163-19.742-39.254-.374-50.703z" fill="#fee903"/><path d="M479.033 128.685L453.05 113.7a7.5 7.5 0 1 0-7.498 12.992l16.428 9.48-55.79 32.198-60.018-34.68 55.587-32.273 15.132 8.733c3.585 2.07 8.173.842 10.245-2.747a7.5 7.5 0 0 0-2.747-10.245L258.583 1.458c-3.395-1.96-7.6-1.942-10.976.044L81.737 99.046a7.5 7.5 0 0 0-2.663 10.267c1.397 2.376 3.9 3.7 6.472 3.7 1.292 0 2.6-.334 3.795-1.036l16.405-9.648 54.852 31.697-60.453 35.255-54.892-31.377 13.187-7.755a7.5 7.5 0 0 0 2.663-10.267c-2.1-3.57-6.7-4.763-10.267-2.663l-22.66 13.327c-3.315 1.95-5.374 5.55-5.374 9.396v231.03c0 3.902 2.104 7.53 5.49 9.464l219.404 125.417a10.9 10.9 0 0 0 5.412 1.434c1.885 0 3.77-.485 5.448-1.455L479.032 378.6a10.93 10.93 0 0 0 5.453-9.441V138.126a10.93 10.93 0 0 0-5.452-9.441zm-308.34 98.2v60.626l-63.15-36.098v-60.626zm298.79-17.15l-55.797 32.202v-60.585l55.797-32.202zm-70.797 40.858l-63.148 36.445v-60.585l63.148-36.445zm-153.07 19.12v60.626l-59.923-34.254V235.46zm15 77.883l59.923-34.583v60.584l-59.923 34.583zm0-17.32v-60.585L320.54 235.1v60.585zm-7.518-73.564l-59.88-34.23 60.087-34.886 59.738 34.52zM92.545 242.84l-54.743-31.293V150.92l54.743 31.293zM37.8 228.824l54.743 31.293v60.625L37.8 289.45zm69.744 39.867l63.15 36.098v60.625l-63.15-36.098zm78.15 44.673l59.923 34.254v60.625l-59.923-34.254zm59.923 112.156v61.866l-59.923-34.253v-61.866zm15-.02l59.923-34.583v61.825l-59.923 34.583zm74.923-43.24l63.148-36.444v61.824l-63.148 36.445zm0-17.32v-60.584l63.148-36.445v60.584zm78.148-105.686l55.797-32.202v60.584l-55.797 32.202zm-22.497-82.238l-63.15 36.445-59.782-34.546 62.958-36.552zm-137.903-6.753l-62.813-36.297L253.3 97.335l62.955 36.377zM331.2 125.03l-62.988-36.396 55.416-32.317 63.15 36.446zM253.152 15.643l55.5 32.036L253.254 80 198.01 48.07zM120.605 93.6l62.55-36.783 55.18 31.885-62.814 36.632zm54.95 49.078l62.78 36.278-60.168 34.933-62.984-36.003zM37.8 306.727l54.743 31.293v12.635a7.5 7.5 0 1 0 15 0v-4.06l63.15 36.098v61.866l-63.15-36.098v-21.828a7.5 7.5 0 1 0-15 0v13.254L37.8 368.595zm375.887 92.256V337.16l55.797-32.202v61.824z"/></svg>