<svg xmlns="http://www.w3.org/2000/svg" viewBox="0 0 512 512" xmlns:v="https://vecta.io/nano"><path d="M479.068 96h-216.32l-22.515 87.1-8.083 57.242 43.33 120.845 6.957 146.64H479.07c18.184 0 32.932-14.748 32.932-32.932V128.932C512 110.748 497.252 96 479.068 96z" fill="#e6e6e6"/><path d="M368.696 416l-86.26 91.826L251.882 416l12.466-33.48z" fill="#3a5bbc"/><path d="M469.565 244.174v-20.87H390.26v-29.217h-20.87v29.217h-71.47v20.87h115.9c-6.446 13.572-17.62 35.215-32.978 58.035-14.132-17.65-23.062-29.93-23.168-30.077l-6.13-8.445-16.892 12.255 6.127 8.445c.477.658 10.876 14.963 27.338 35.3-11.222 13.75-31.808 36.106-42.655 46.952l14.756 14.756c9.362-9.362 28.774-30.214 41.426-45.327 16.46 19.553 32.523 37.194 47.854 52.526l7.378 7.378 14.758-14.755-7.378-7.378c-15.84-15.84-32.52-34.264-49.647-54.8 22.133-31.823 36.48-61.956 42.2-74.866h32.765z" fill="gray"/><path d="M349.33 357.523L368.696 416H32.932C14.734 416 0 401.252 0 383.068V37.106C0 18.922 14.734 4.174 32.932 4.174h199.416l116.98 353.35z" fill="#518ef8"/><path d="M149.3 287.374c-42.77 0-77.565-34.795-77.565-77.565s34.795-77.565 77.565-77.565c20.704 0 40.182 8.065 54.845 22.712l-14.75 14.766c-10.723-10.7-24.96-16.608-40.097-16.608-31.263 0-56.696 25.433-56.696 56.696s25.433 56.696 56.696 56.696c27.698 0 50.82-19.967 55.733-46.26h-55.73v-20.87h77.565V209.8c-.001 42.77-34.796 77.564-77.566 77.564z" fill="#fff"/></svg>